<svg xmlns="http://www.w3.org/2000/svg" xmlns:xlink="http://www.w3.org/1999/xlink" viewBox="0 0 75.01 75.01"><defs><style>.cls-1{fill:none;}.cls-2{clip-path:url(#clip-path);}.cls-3{fill:#53C2E8;}</style><clipPath id="clip-path" transform="translate(0 0)"><rect class="cls-1" width="75.01" height="75.01"/></clipPath></defs><title>Asset 1</title><g id="Layer_2" data-name="Layer 2"><g id="Layer_1-2" data-name="Layer 1"><g class="cls-2"><path class="cls-3" d="M44.34,69.17a52.72,52.72,0,0,0,4.08-4.57,48,48,0,0,0,4.77-7.23A67.18,67.18,0,0,1,61,59.77a32.41,32.41,0,0,1-16.67,9.4M14,59.77a66.75,66.75,0,0,1,7.83-2.4,47.93,47.93,0,0,0,4.76,7.23,51.11,51.11,0,0,0,4.09,4.57A32.44,32.44,0,0,1,14,59.77M30.68,5.84a52.55,52.55,0,0,0-4.09,4.57,48.64,48.64,0,0,0-4.7,7.12,64.35,64.35,0,0,1-7.8-2.38A32.44,32.44,0,0,1,30.68,5.84m30.24,9.31a64.75,64.75,0,0,1-7.79,2.38,48.71,48.71,0,0,0-4.71-7.12,54.24,54.24,0,0,0-4.08-4.57,32.45,32.45,0,0,1,16.58,9.31M58.21,35.59a41.48,41.48,0,0,0-3-13.75l-.33-.78a70,70,0,0,0,8.7-2.8,32.23,32.23,0,0,1,6.3,17.33Zm-3,17.58a41.42,41.42,0,0,0,3-13.74H69.84a32.28,32.28,0,0,1-6.23,17.23,69.22,69.22,0,0,0-8.72-2.82l.28-.67M39.43,51.74V39.43H54.36A37.22,37.22,0,0,1,51.08,53a71.47,71.47,0,0,0-11.65-1.25m0,16.76V55.58a68.06,68.06,0,0,1,9.83,1,44.43,44.43,0,0,1-3.76,5.55,49.42,49.42,0,0,1-6.07,6.39M35.59,55.58V68.5a47.82,47.82,0,0,1-6-6.29,45.15,45.15,0,0,1-3.85-5.65,68.2,68.2,0,0,1,9.84-1M20.65,39.43H35.59V51.74A71.47,71.47,0,0,0,23.93,53a37.42,37.42,0,0,1-3.28-13.56m-3.84,0a41.17,41.17,0,0,0,3,13.74c.09.22.18.45.28.67a68.84,68.84,0,0,0-8.73,2.82A32.18,32.18,0,0,1,5.18,39.43Zm3-17.59a41.23,41.23,0,0,0-3,13.75H5.18a32.15,32.15,0,0,1,6.3-17.33,70.34,70.34,0,0,0,8.69,2.8c-.11.26-.22.52-.32.78m15.74,1.31V35.59H20.65A37.54,37.54,0,0,1,24,21.9a71,71,0,0,0,11.61,1.25m0-16.63V19.31a68.65,68.65,0,0,1-9.77-1,44.66,44.66,0,0,1,3.7-5.44,47.93,47.93,0,0,1,6.07-6.38m3.84,12.79V6.51a49.15,49.15,0,0,1,6,6.29,45.27,45.27,0,0,1,3.78,5.54,68.8,68.8,0,0,1-9.77,1m0,3.84A70.86,70.86,0,0,0,51,21.9a37.34,37.34,0,0,1,3.33,13.69H39.43ZM64,11a37.49,37.49,0,0,0-53,0A37.5,37.5,0,0,0,37.51,75,37.5,37.5,0,0,0,64,11" transform="translate(0 0)"/></g></g></g></svg>