<svg xmlns="http://www.w3.org/2000/svg" xmlns:xlink="http://www.w3.org/1999/xlink" viewBox="0 0 91.09 77.06"><defs><style>.cls-1{fill:none;}.cls-2{clip-path:url(#clip-path);}.cls-3{fill:#53C2E8;}</style><clipPath id="clip-path" transform="translate(0)"><rect class="cls-1" width="91.09" height="77.06"/></clipPath></defs><title>Asset 3</title><g id="Layer_2" data-name="Layer 2"><g id="Layer_1-2" data-name="Layer 1"><g class="cls-2"><path class="cls-3" d="M74.08,77.06V32H89.36a1.74,1.74,0,0,0,.9-3.22L77.61,21.13V1.73A1.73,1.73,0,0,0,75.87,0H63.36a1.73,1.73,0,0,0-1.73,1.73v9.7L46.44,2.21a1.76,1.76,0,0,0-1.8,0L.83,28.81a1.76,1.76,0,0,0-.77,2A1.73,1.73,0,0,0,1.73,32H16.82v45H40.58L48.48,60H31.17L51.5,19.82l-3,28.79H62.63L55.54,77.06Z" transform="translate(0)"/></g></g></g></svg>