<svg xmlns="http://www.w3.org/2000/svg" xmlns:xlink="http://www.w3.org/1999/xlink" viewBox="0 0 79.68 78.19"><defs><style>.cls-1{fill:none;}.cls-2{clip-path:url(#clip-path);}.cls-3{fill:#233978;}</style><clipPath id="clip-path" transform="translate(0 0)"><rect class="cls-1" width="79.68" height="78.19"/></clipPath></defs><title>Asset 8</title><g id="Layer_2" data-name="Layer 2"><g id="Layer_1-2" data-name="Layer 1"><g class="cls-2"><path class="cls-3" d="M77.74,4.2H50.34V7.67H69a2.06,2.06,0,0,1,2.08,2,2,2,0,0,1-2,2H50.34V24.35h27.4a1.94,1.94,0,0,0,1.94-1.94V6.14A1.94,1.94,0,0,0,77.74,4.2" transform="translate(0 0)"/><path class="cls-3" d="M11.47,67.24a2,2,0,0,1-2.05,2,2.05,2.05,0,0,1-2-2.08V49.26H4.2V76.19a2,2,0,0,0,2,2H22.34a2,2,0,0,0,2-2V49.26H11.47Z" transform="translate(0 0)"/><path class="cls-3" d="M15.55,15.24c-3.83,4.46-6.37,10.34-8.3,8.68s-.31-8,3.53-12.41,9.94-6.75,11.87-5.09-3.26,4.35-7.1,8.82M45.25,1.81a2.16,2.16,0,0,0-.16-.49A2.27,2.27,0,0,0,43,0H29.36A29.32,29.32,0,0,0,4.48,13.78c-.3.47-.59,1-.86,1.46l-.11.19A29.23,29.23,0,0,0,0,29.36V42a2.23,2.23,0,0,0,.67,1.6,2.24,2.24,0,0,0,.72.49l.21.08a3.12,3.12,0,0,0,.44.09H26.28A2.27,2.27,0,0,0,28.55,42V29.36a.76.76,0,0,1,0-.21.82.82,0,0,1,.78-.6H43a2.27,2.27,0,0,0,2.27-2.27v-24a2.4,2.4,0,0,0,0-.46" transform="translate(0 0)"/></g></g></g></svg>