<svg xmlns="http://www.w3.org/2000/svg" xmlns:xlink="http://www.w3.org/1999/xlink" viewBox="0 0 84.68 96.02"><defs><style>.cls-1{fill:none;}.cls-3{fill:#54c2e8;}</style><clipPath id="clip-path" transform="translate(0 0)"><rect class="cls-1" width="84.68" height="96.02"/></clipPath></defs><title>Asset 9</title><g id="Layer_2" data-name="Layer 2"><g id="Layer_1-2" data-name="Layer 1"><g class="cls-2"><path class="cls-3" d="M78.76,23.84C77.59,14.21,68.35,6.9,57,6.9a25,25,0,0,0-6.86.95A23,23,0,0,0,32.37,0C20.28,0,10.45,8.53,10.45,19c0,.52,0,1,.08,1.57C4.05,24,0,30.11,0,36.82c0,10.48,9.84,19,21.93,19a24.26,24.26,0,0,0,11.21-2.68,24.26,24.26,0,0,0,11.21,2.68,24.68,24.68,0,0,0,9.2-1.76,24.72,24.72,0,0,0,9.2,1.76c12.09,0,21.93-8.52,21.93-19a17.74,17.74,0,0,0-5.92-13" transform="translate(0 0)"/><path class="cls-3" d="M20.88,64.52A3.53,3.53,0,0,0,16.1,66l-3,5.64a3.52,3.52,0,0,0,1.45,4.77,3.44,3.44,0,0,0,1.66.42,3.54,3.54,0,0,0,3.12-1.87l3-5.64a3.52,3.52,0,0,0-1.45-4.77" transform="translate(0 0)"/><path class="cls-3" d="M46.35,64.52A3.52,3.52,0,0,0,41.58,66l-3,5.64A3.52,3.52,0,0,0,40,76.38a3.44,3.44,0,0,0,1.66.42,3.54,3.54,0,0,0,3.12-1.87l3-5.64a3.52,3.52,0,0,0-1.45-4.77" transform="translate(0 0)"/><path class="cls-3" d="M67.75,64.52A3.52,3.52,0,0,0,63,66l-3,5.64a3.53,3.53,0,0,0,1.46,4.77,3.4,3.4,0,0,0,1.65.42,3.54,3.54,0,0,0,3.12-1.87l3-5.64a3.53,3.53,0,0,0-1.46-4.77" transform="translate(0 0)"/><path class="cls-3" d="M28.86,83.63a3.53,3.53,0,0,0-4.66,1.78l-2.51,5.64a3.53,3.53,0,1,0,6.44,2.88l2.52-5.64a3.53,3.53,0,0,0-1.79-4.66" transform="translate(0 0)"/><path class="cls-3" d="M55,83.63a3.53,3.53,0,0,0-4.66,1.78l-2.51,5.64a3.53,3.53,0,1,0,6.44,2.88l2.52-5.64A3.53,3.53,0,0,0,55,83.63" transform="translate(0 0)"/></g></g></g></svg>