<svg xmlns="http://www.w3.org/2000/svg" xmlns:xlink="http://www.w3.org/1999/xlink" viewBox="0 0 50.32 79.84"><defs><style>.cls-1{fill:none;}.cls-2{clip-path:url(#clip-path);}.cls-3{fill:#233978;}</style><clipPath id="clip-path" transform="translate(0 0)"><rect class="cls-1" width="50.32" height="79.84"/></clipPath></defs><title>Asset 5</title><g id="Layer_2" data-name="Layer 2"><g id="Layer_1-2" data-name="Layer 1"><g class="cls-2"><path class="cls-3" d="M47.68,70.19a1.46,1.46,0,0,0-2.51-.39l-4.94,4.94a1.46,1.46,0,0,0,.39,2.51,5.9,5.9,0,0,0,7.06-7.06m2.61.63c-.66,6.8-6,9-10,9s-9.29-2.22-9.95-9c-.44-4.52,4.13-12.28,7.23-16.95a3.27,3.27,0,0,1,5.45,0c3.1,4.67,7.67,12.43,7.23,16.95" transform="translate(0 0)"/><path class="cls-3" d="M2.27,17.71H4.79V17A1.81,1.81,0,0,1,6.6,15.2H9.94A1.8,1.8,0,0,1,11.74,17v1.27h5.74V16.54a2,2,0,0,1,2-2h1.82V6.93H15.52a2.45,2.45,0,1,1,0-4.9h5.87a2.78,2.78,0,0,1,5.35,0h5.87a2.45,2.45,0,1,1,0,4.9H26.85v7.63h1.82a2,2,0,0,1,2,2v1.75A16.33,16.33,0,0,1,46.47,34.6v5.66h1.74a1.57,1.57,0,0,1,1.57,1.57v3.53a1.57,1.57,0,0,1-1.57,1.57H32.46a1.57,1.57,0,0,1-1.58-1.57V41.83a1.57,1.57,0,0,1,1.58-1.57h1.73V34.6a4,4,0,0,0-4-4H11.74v1.28a1.8,1.8,0,0,1-1.8,1.81H6.6a1.81,1.81,0,0,1-1.81-1.81v-.7H2.27A2.27,2.27,0,0,1,0,28.87V20a2.27,2.27,0,0,1,2.27-2.27" transform="translate(0 0)"/></g></g></g></svg>