<svg xmlns="http://www.w3.org/2000/svg" xmlns:xlink="http://www.w3.org/1999/xlink" viewBox="0 0 32.32 78.58"><defs><style>.cls-1{fill:none;}.cls-2{clip-path:url(#clip-path);}.cls-3{fill:#53C2E8;}</style><clipPath id="clip-path" transform="translate(0 0)"><rect class="cls-1" width="32.32" height="78.58"/></clipPath></defs><title>Asset 4</title><g id="Layer_2" data-name="Layer 2"><g id="Layer_1-2" data-name="Layer 1"><g class="cls-2"><path class="cls-3" d="M27.81,62.42A11.65,11.65,0,1,1,9.75,52.69V10.92a6.42,6.42,0,0,1,12.83,0V52.69a11.65,11.65,0,0,1,5.23,9.73m-.72-51.5a10.93,10.93,0,0,0-21.85,0V50.51a16.16,16.16,0,1,0,21.85,0Z" transform="translate(0 0)"/><path class="cls-3" d="M20.92,55.2l-1.35-.89V29.66H12.76V54.31l-1.35.89a8.65,8.65,0,1,0,9.51,0" transform="translate(0 0)"/></g></g></g></svg>