<svg xmlns="http://www.w3.org/2000/svg" xmlns:xlink="http://www.w3.org/1999/xlink" viewBox="0 0 72.52 77.1"><defs><style>.cls-1{fill:none;}.cls-2{clip-path:url(#clip-path);}.cls-3{fill:#53C2E8;}</style><clipPath id="clip-path" transform="translate(0)"><rect class="cls-1" width="72.52" height="77.1"/></clipPath></defs><title>Asset 7</title><g id="Layer_2" data-name="Layer 2"><g id="Layer_1-2" data-name="Layer 1"><g class="cls-2"><path class="cls-3" d="M14.14,64.84a12.26,12.26,0,0,0,24.52,0V39.51a12.23,12.23,0,0,1,15.64,2,12.23,12.23,0,0,1,9-4,12.65,12.65,0,0,1,9.2,4A36.25,36.25,0,0,0,38.66,5.33V2.4a2.4,2.4,0,1,0-4.8,0V5.33A36.25,36.25,0,0,0,0,41.5a12.65,12.65,0,0,1,9.21-4,12.26,12.26,0,0,1,9,4,12.21,12.21,0,0,1,15.63-2V64.84a7.46,7.46,0,0,1-14.92,0V62.79s0-.06,0-.09.17-1-1.11-1H15.54c-.63,0-1.39,0-1.39,1" transform="translate(0)"/></g></g></g></svg>