<svg xmlns="http://www.w3.org/2000/svg" xmlns:xlink="http://www.w3.org/1999/xlink" viewBox="0 0 70.77 70.32"><defs><style>.cls-1{fill:none;}.cls-2{clip-path:url(#clip-path);}.cls-3{fill:#53C2E8;}</style><clipPath id="clip-path" transform="translate(0 0)"><rect class="cls-1" width="70.77" height="70.32"/></clipPath></defs><title>Asset 2</title><g id="Layer_2" data-name="Layer 2"><g id="Layer_1-2" data-name="Layer 1"><g class="cls-2"><path class="cls-3" d="M58.53,41.43A15.42,15.42,0,0,1,47.08,36.8a15.44,15.44,0,0,1-11.46,4.63A15.42,15.42,0,0,1,24.17,36.8a15.42,15.42,0,0,1-11.45,4.63,2.51,2.51,0,1,1,0-5c6.55,0,9-4.54,9.2-4.87a2.47,2.47,0,0,1,4.5,0c.17.33,2.65,4.87,9.2,4.87s9-4.54,9.21-4.87a2.47,2.47,0,0,1,4.5,0c.17.33,2.64,4.87,9.2,4.87a2.51,2.51,0,0,1,0,5" transform="translate(0 0)"/><path class="cls-3" d="M23.63,43.18a2.06,2.06,0,1,0,3.28,2.49l2-2.63a17.73,17.73,0,0,1-3.75-1.87Z" transform="translate(0 0)"/><path class="cls-3" d="M46.53,40.86l-6.45,8.55a2.3,2.3,0,0,0,3.68,2.77l7.15-9.49a18,18,0,0,1-3.83-2.23l-.55.4" transform="translate(0 0)"/><path class="cls-3" d="M68.24,11.37a2.83,2.83,0,0,0-.55-4l-9-6.81a2.85,2.85,0,0,0-4,.54L50.88,6.21A6.61,6.61,0,0,1,45.7,8.87,8.2,8.2,0,0,0,39,12.44L32.85,20.5h0L27,28.22a5.18,5.18,0,0,1,1.84,2.09,5.81,5.81,0,0,0,.86,1.09A7.08,7.08,0,0,0,31.34,30l5.87-7.71c3.63.83,9.82,1.28,13.7-2.19a.79.79,0,0,1,1.11.17.83.83,0,0,1-.11,1.14,12.89,12.89,0,0,1-6,2.92,18,18,0,0,1-6.24.09c-.54-.08-1.07-.18-1.57-.29l-6.58,8.66a8.68,8.68,0,0,0,4.07.93H36l4-5.26,1,.77-3.23,4.26a7.06,7.06,0,0,0,4.57-3.13,5.21,5.21,0,0,1,9.39,0,7.35,7.35,0,0,0,6,3.34l3-3.91a9.17,9.17,0,0,0,1.72-7.21,6.7,6.7,0,0,1,1.28-5.22Z" transform="translate(0 0)"/><path class="cls-3" d="M26.12,48.83a2.22,2.22,0,0,0,3.53,2.68l5.58-7.35a19.68,19.68,0,0,1-5-.71l-4.08,5.38" transform="translate(0 0)"/><path class="cls-3" d="M32.57,49.77a2.22,2.22,0,1,0,3.53,2.68l7.55-9.94a18.94,18.94,0,0,1-6.8,1.62l-4.28,5.64" transform="translate(0 0)"/><path class="cls-3" d="M24.39,56.08a3.34,3.34,0,1,1-3.34-3.34,3.34,3.34,0,0,1,3.34,3.34" transform="translate(0 0)"/><path class="cls-3" d="M57.81,49.38A3.36,3.36,0,1,1,54.45,46a3.36,3.36,0,0,1,3.36,3.36" transform="translate(0 0)"/><path class="cls-3" d="M49.28,57.62a2.82,2.82,0,1,1-2.81-2.81,2.81,2.81,0,0,1,2.81,2.81" transform="translate(0 0)"/><path class="cls-3" d="M29.09,15.32a2.94,2.94,0,1,1-2.94-2.93,2.93,2.93,0,0,1,2.94,2.93" transform="translate(0 0)"/><path class="cls-3" d="M20.32,24.84a4,4,0,1,1-4-4,4,4,0,0,1,4,4" transform="translate(0 0)"/><path class="cls-3" d="M70.77,34.16a1.14,1.14,0,0,0-1.29-1.08h-2.1a1.81,1.81,0,0,0-1.53,1.29c-.54,1.29-7.34,28.94-7.34,28.94a2.71,2.71,0,0,1-2.64,2h-41a2.73,2.73,0,0,1-2.65-2S5.46,35.66,4.92,34.37a1.83,1.83,0,0,0-1.54-1.29H1.29A1.14,1.14,0,0,0,0,34.16L8.52,67.93a3.15,3.15,0,0,0,3.06,2.39h47.6a3.16,3.16,0,0,0,3.07-2.39Z" transform="translate(0 0)"/></g></g></g></svg>