<svg xmlns="http://www.w3.org/2000/svg" xmlns:xlink="http://www.w3.org/1999/xlink" viewBox="0 0 33.98 77.66"><defs><style>.cls-1{fill:none;}.cls-2{clip-path:url(#clip-path);}.cls-3{fill:#53C2E8;}</style><clipPath id="clip-path" transform="translate(0 0)"><rect class="cls-1" width="33.98" height="77.66"/></clipPath></defs><title>Asset 6</title><g id="Layer_2" data-name="Layer 2"><g id="Layer_1-2" data-name="Layer 1"><g class="cls-2"><path class="cls-3" d="M22.07,2.25V.68c0-.37-.41-.68-.91-.68H12.63c-.51,0-.92.31-.92.68V2.25C6.4,3.14,5,5.24,5,5.24H28.77s-1.39-2.1-6.7-3" transform="translate(0 0)"/><path class="cls-3" d="M24.68,24.78a1.47,1.47,0,0,1,0-2.93,1.47,1.47,0,1,1,0,2.93M29,7.05H5v20H29Z" transform="translate(0 0)"/><path class="cls-3" d="M6.62,31.53H27.35A1.5,1.5,0,0,0,28.86,30V28.87H5.11V30a1.51,1.51,0,0,0,1.51,1.51" transform="translate(0 0)"/><path class="cls-3" d="M21.07,38.45l-4.24,3.37-4.22-3.37ZM8.32,40.05l5.37,4.27L7.25,49.44Zm5.16,23.52L4.89,70.16,6.27,58ZM16.82,61l-5.18-4H22Zm3.51,2.69L27.7,58l1.42,12.45ZM24.1,52.61H9.39l7.36-5.85Zm-4.21-8.36,5.73-4.55,1.14,10ZM34,75.79l-4.7-40.37a1.68,1.68,0,0,0-1.66-1.48H6.38a1.69,1.69,0,0,0-1.67,1.48L0,75.79a1.66,1.66,0,0,0,.84,1.65,1.68,1.68,0,0,0,1.85-.13L17,66.27l14.28,11a1.67,1.67,0,0,0,1.85.13A1.66,1.66,0,0,0,34,75.79" transform="translate(0 0)"/></g></g></g></svg>